# xmcd
#
# Track frame offsets: 
#        150
#        32516
#        63087
#        100033
#        140271
#        174079
#        198721
#        230052
#
# Disc length: 3380 seconds
#
# Revision: 0
# Processed by: cddbd v1.5.1PL0 Copyright (c) Steve Scherf et al.
# Submitted via: ExactAudioCopy v0.95b2
#
DISCID=600d3208
DTITLE=Curtis Mayfield - Mayfield Remixed - The Curtis Mayfield Collec
DTITLE=tion
DYEAR=2005
DGENRE=R&B
TTITLE0=Superfly (Little Louie Vega EOL Mix)
TTITLE1=Do Do Wap Is Strong In Here (Ashley Beedle Re-Edit)
TTITLE2=Move On Up (Eric Kupper Vocal Mix)
TTITLE3=Little Child Runnin' Wild (King Britt Scuba Mix)
TTITLE4=Freddie's Dead (Blaze Roots DJ Mix)
TTITLE5=(Don't Worry) If There's A Hell Below We're All Going To Go (M
TTITLE5=aurice Joshua Nu Soul Mix)
TTITLE6=We Got To Have Peace (Eddie Baez Laid Back Mix)
TTITLE7=Pusherman (Mixmastermike Pusher's Nephew Mix)
EXTD=
EXTT0=
EXTT1=
EXTT2=
EXTT3=
EXTT4=
EXTT5=
EXTT6=
EXTT7=
PLAYORDER=
